<?xml version="1.0" standalone="no"?>
<!DOCTYPE svg PUBLIC "-//W3C//DTD SVG 20010904//EN"
 "http://www.w3.org/TR/2001/REC-SVG-20010904/DTD/svg10.dtd">
<svg version="1.0" xmlns="http://www.w3.org/2000/svg"
 width="689.000000pt" height="689.000000pt" viewBox="0 0 689.000000 689.000000"
 preserveAspectRatio="xMidYMid meet">
<metadata>
Created by potrace 1.14, written by Peter Selinger 2001-2017
</metadata>
<g transform="translate(0.000000,689.000000) scale(0.100000,-0.100000)"
fill="#000000" stroke="none">
<path d="M2589 6416 c-2 -2 -29 -7 -59 -10 -254 -30 -513 -184 -704 -418 -30
-37 -58 -57 -130 -91 -50 -24 -95 -45 -101 -47 -5 -2 -14 -7 -20 -12 -5 -4
-46 -31 -90 -60 -96 -63 -97 -64 -197 -158 -79 -73 -186 -207 -244 -305 -81
-135 -169 -359 -198 -505 -3 -14 -7 -35 -10 -47 -2 -11 -8 -42 -11 -68 l-7
-46 118 80 c66 44 175 109 244 144 114 59 315 141 368 152 12 2 27 7 32 10 5
3 18 8 27 10 10 2 54 12 98 23 44 11 96 23 115 26 19 3 44 7 55 9 124 24 214
31 410 31 292 -1 431 -21 700 -100 152 -44 464 -178 481 -206 18 -28 150 297
170 418 21 128 8 306 -32 436 -7 22 31 60 88 86 41 19 222 74 283 87 11 2 67
13 125 25 58 12 116 23 130 24 14 2 25 5 25 6 0 1 9 3 20 4 25 3 128 19 135
21 6 1 109 18 130 20 38 5 107 16 130 21 14 2 45 7 70 9 25 3 56 7 70 9 38 6
116 16 205 27 44 6 91 12 105 14 14 2 55 6 91 9 36 3 72 8 80 10 8 3 41 8 74
11 83 8 132 13 185 21 25 3 65 7 90 10 49 4 104 10 178 18 26 3 72 9 102 12
30 3 66 7 80 9 14 1 57 6 95 9 39 4 86 10 105 12 35 5 54 7 180 18 36 4 81 9
100 11 43 6 98 12 170 20 30 3 66 8 80 10 14 2 48 6 75 10 52 6 96 24 65 26
-778 47 -1843 45 -2535 -5 -33 -3 -100 -8 -150 -11 -49 -3 -108 -8 -130 -10
-22 -2 -76 -6 -120 -9 -44 -4 -96 -8 -115 -11 -19 -2 -64 -7 -100 -10 -36 -3
-81 -8 -100 -11 -27 -4 -54 4 -120 34 -128 59 -356 141 -434 156 -6 2 -36 8
-66 14 -30 7 -73 15 -95 18 -47 7 -310 16 -316 10z m211 -350 c50 -12 90 -37
90 -58 0 -16 -38 -49 -64 -55 -102 -23 -165 -22 -281 1 -31 7 -65 38 -65 61 0
14 61 43 111 54 42 9 162 7 209 -3z"/>
<path d="M2205 4972 c-2 -2 -32 -5 -67 -7 -82 -5 -179 -15 -198 -20 -8 -3 -33
-7 -55 -10 -60 -9 -289 -66 -300 -75 -5 -5 -14 -9 -20 -9 -15 -2 -105 -32
-145 -49 -19 -9 -37 -16 -40 -17 -3 0 -32 -13 -65 -29 -402 -185 -727 -464
-974 -833 -34 -51 -59 -93 -56 -93 4 0 -3 -14 -15 -30 -87 -122 -215 -490
-246 -705 -3 -27 -9 -59 -11 -70 -9 -39 -11 -411 -2 -475 5 -36 12 -83 15
-105 8 -59 43 -210 66 -285 106 -342 287 -639 553 -905 96 -96 290 -254 348
-284 15 -8 27 -18 27 -23 0 -4 4 -8 10 -8 5 0 38 -17 72 -38 56 -34 251 -133
271 -138 4 -1 9 -3 12 -4 3 -1 8 -3 13 -5 4 -1 21 -7 37 -14 36 -16 164 -61
185 -66 8 -2 51 -12 95 -24 44 -11 93 -23 109 -25 16 -3 52 -10 80 -16 237
-48 613 -45 866 7 41 8 83 17 94 19 56 11 194 48 209 56 10 5 26 11 35 13 65
12 310 125 440 202 89 52 195 125 200 136 2 4 8 7 13 7 5 0 17 8 27 17 10 10
40 36 68 57 79 64 254 244 325 336 196 251 346 561 405 835 2 11 6 31 9 45 9
39 23 121 30 170 9 58 20 305 15 320 -1 3 -3 41 -5 85 -2 44 -6 96 -9 115 -13
90 -17 117 -22 140 -3 14 -7 34 -9 45 -6 41 -57 217 -75 260 -4 11 -18 47 -31
80 -54 145 -224 440 -301 525 -13 14 -36 42 -52 63 -73 98 -287 294 -436 399
-56 40 -266 168 -275 168 -1 0 -45 20 -96 44 -303 142 -627 212 -1002 219 -65
1 -120 1 -122 -1z m134 -917 c12 -66 23 -131 26 -145 3 -14 10 -52 16 -85 5
-33 12 -71 15 -85 2 -14 12 -65 20 -115 9 -49 17 -91 18 -92 1 -1 20 -5 42 -8
21 -4 65 -15 97 -26 32 -11 62 -19 67 -17 8 2 211 245 298 357 15 19 32 39 37
45 6 6 28 32 49 59 38 46 58 58 37 20 -6 -10 -40 -99 -76 -198 -37 -99 -69
-187 -72 -195 -4 -8 -7 -17 -7 -20 -2 -8 -47 -122 -61 -153 -12 -28 -10 -31
61 -104 41 -42 74 -79 74 -84 0 -4 39 6 88 23 48 16 94 31 102 33 8 2 57 18
109 35 52 17 101 33 110 35 16 3 177 56 216 71 16 6 15 4 -5 -14 -33 -29 -272
-207 -502 -374 -16 -12 -16 -18 -3 -68 8 -30 15 -79 17 -109 2 -39 7 -55 18
-56 15 -3 141 -41 170 -52 8 -3 20 -7 25 -8 25 -6 286 -88 333 -106 30 -10 62
-19 73 -19 10 0 19 -4 19 -8 0 -5 -42 -9 -92 -9 -51 -1 -126 -2 -165 -2 -42
-1 -73 -5 -73 -11 0 -6 3 -9 8 -9 20 3 40 -3 71 -22 31 -19 33 -22 17 -31 -17
-10 -73 -12 -106 -5 -65 15 -102 31 -115 50 -14 22 -33 24 -196 18 -10 -1 -25
-21 -38 -53 -12 -29 -34 -73 -50 -98 l-28 -45 41 -51 c23 -28 55 -68 71 -89
17 -21 35 -43 40 -49 6 -6 30 -38 55 -71 25 -33 51 -66 58 -73 7 -8 24 -30 39
-50 15 -21 45 -59 66 -85 22 -26 38 -50 36 -52 -3 -2 -65 36 -139 86 -74 49
-138 89 -142 89 -4 0 -13 6 -20 13 -7 7 -38 28 -68 47 -30 19 -56 38 -58 42
-2 5 -8 8 -14 8 -6 0 -33 16 -59 35 -27 19 -52 35 -55 35 -3 0 -24 -13 -47
-29 -23 -15 -66 -41 -94 -56 -29 -15 -51 -30 -49 -34 2 -3 6 -33 10 -66 4 -33
9 -76 12 -95 3 -19 6 -53 8 -75 2 -22 6 -58 9 -80 4 -22 9 -65 12 -95 3 -30 7
-71 9 -90 3 -19 7 -62 10 -95 l6 -60 -30 60 c-66 133 -250 527 -250 535 0 5
-47 9 -105 9 -58 0 -110 3 -115 6 -5 3 -12 -5 -16 -17 -6 -20 -23 -61 -69
-163 -7 -16 -32 -73 -55 -125 -50 -114 -83 -188 -115 -255 l-24 -50 5 65 c3
36 7 85 9 110 2 25 4 45 5 45 0 0 3 26 5 57 2 32 7 87 10 123 3 36 7 95 11
133 3 37 7 82 9 100 4 29 0 34 -38 53 -23 12 -65 37 -94 56 l-52 35 -202 -139
c-110 -76 -206 -142 -213 -148 -22 -20 -123 -85 -130 -85 -4 0 15 29 43 65 28
35 51 67 51 70 0 3 8 13 18 23 9 10 55 71 102 136 47 65 92 126 100 136 8 10
23 30 34 44 10 14 24 33 31 42 10 15 5 31 -31 98 -24 45 -44 89 -44 99 0 16
-12 22 -35 17 -28 -6 -635 -4 -635 3 0 4 3 7 8 8 18 2 49 12 227 74 105 36
197 68 205 70 8 2 16 4 18 5 1 2 5 3 10 5 4 1 14 4 22 7 8 3 43 16 78 28 60
22 62 23 62 59 1 33 5 60 25 147 6 29 4 33 -45 64 -29 18 -57 38 -64 44 -6 6
-19 16 -28 21 -9 6 -45 30 -80 54 -34 24 -76 54 -93 65 -16 12 -32 23 -35 26
-4 4 -41 30 -165 115 -22 15 -31 25 -20 22 11 -3 56 -15 100 -27 44 -12 87
-24 95 -27 20 -8 20 -8 55 -18 60 -15 369 -106 375 -110 3 -2 21 15 40 37 47
55 88 96 107 107 15 8 14 15 -9 67 -15 33 -54 129 -88 214 -34 85 -68 169 -75
185 -36 83 -66 168 -61 173 3 3 6 1 6 -5 0 -6 24 -37 53 -70 28 -33 63 -73 77
-89 35 -41 154 -178 160 -184 3 -3 30 -34 60 -70 86 -102 72 -95 148 -71 37
11 83 23 102 26 19 4 36 7 38 9 4 5 11 42 17 105 4 31 8 63 10 71 3 8 6 29 9
45 7 44 26 175 31 215 3 19 7 46 10 60 6 27 17 115 18 142 3 42 17 -6 36 -117z
m177 -229 c3 -64 -12 -134 -34 -159 -14 -16 -17 -16 -25 -1 -11 20 -10 121 2
162 1 1 1 4 1 7 0 3 7 19 16 36 21 42 37 25 40 -45z m-405 0 c27 -61 37 -181
16 -189 -19 -7 -31 7 -46 55 -23 72 -20 178 5 178 3 0 14 -20 25 -44z m606
-71 c-10 -78 -79 -196 -102 -173 -12 12 16 113 45 166 39 67 64 71 57 7z
m-808 8 c24 -26 68 -116 71 -143 6 -41 1 -50 -23 -39 -13 6 -27 19 -32 29 -57
109 -78 180 -53 180 8 0 25 -12 37 -27z m1160 -167 c-38 -81 -139 -169 -139
-122 0 16 29 73 47 93 6 7 20 23 30 36 26 33 66 58 76 48 5 -5 -1 -29 -14 -55z
m-1481 -50 c53 -50 98 -121 83 -131 -28 -17 -138 84 -160 145 -9 27 -8 30 10
30 11 0 41 -20 67 -44z m1632 -131 c0 -20 -79 -99 -120 -120 -80 -42 -95 -14
-27 52 72 70 147 105 147 68z m-1732 -38 c24 -11 60 -36 80 -55 34 -32 36 -35
17 -42 -46 -17 -212 80 -198 116 6 16 38 11 101 -19z m1971 -231 c14 -16 -56
-61 -127 -82 -135 -40 -107 31 31 76 61 20 83 22 96 6z m-2099 -118 c59 -20
80 -54 38 -60 -29 -5 -144 20 -180 38 -29 15 -34 25 -21 38 10 10 120 -1 163
-16z m2084 -181 c46 -34 -71 -61 -207 -49 -33 3 -14 36 28 48 54 17 157 17
179 1z m-2069 -21 c0 -32 -106 -50 -213 -38 -8 1 -12 9 -10 18 5 24 64 40 148
40 67 -1 75 -3 75 -20z m95 -340 c0 -21 -94 -73 -158 -87 -56 -13 -72 -8 -56
18 12 19 105 73 116 67 4 -3 9 -1 12 4 2 4 23 9 45 10 31 2 41 -1 41 -12z
m1733 -171 c100 -49 158 -122 84 -106 -47 11 -97 37 -140 72 -70 58 -36 79 56
34z m-1653 -13 c0 -36 -162 -154 -189 -138 -17 11 -13 22 18 53 84 83 171 126
171 85z m228 -245 c-30 -89 -164 -211 -144 -131 16 62 113 178 141 168 11 -4
11 -12 3 -37z m1187 23 c4 -6 10 -8 14 -5 11 6 94 -83 115 -124 15 -28 15 -32
1 -37 -15 -6 -77 34 -102 66 -41 51 -64 90 -58 99 8 14 22 14 30 1z m-178
-108 c55 -75 92 -192 60 -192 -18 0 -60 53 -81 105 -40 94 -26 151 21 87z
m-521 -73 c8 -13 8 -121 0 -158 -8 -38 -36 -75 -48 -63 -23 23 -11 177 16 221
9 14 23 14 32 0z m-328 -53 c-9 -73 -67 -176 -99 -176 -7 0 -9 12 -6 33 5 33
14 70 17 75 2 1 3 5 4 10 3 14 37 73 53 92 24 27 36 14 31 -34z m586 -130 c15
-47 20 -94 17 -153 -2 -35 -30 -27 -47 13 -8 19 -17 62 -21 94 -11 115 21 143
51 46z"/>
<path d="M4528 1642 c-28 -46 -78 -115 -104 -144 -13 -15 -24 -30 -24 -34 0
-3 -6 -11 -12 -18 -7 -7 -35 -40 -63 -72 -59 -70 -225 -235 -285 -284 -24 -19
-48 -39 -54 -45 -27 -23 -204 -144 -256 -174 -50 -29 -200 -101 -242 -116 -24
-9 -77 -28 -118 -42 -138 -47 -160 -56 -160 -63 0 -15 203 -112 261 -124 13
-3 51 -12 84 -21 33 -8 80 -18 105 -22 55 -9 309 -10 365 -1 214 34 455 130
625 247 104 72 274 211 257 211 -6 0 -49 -18 -152 -65 -52 -23 -125 -54 -130
-55 -3 0 -25 -9 -51 -20 -49 -21 -94 -26 -94 -10 0 24 94 191 112 198 4 2 8 8
8 12 0 5 24 47 53 92 73 114 74 115 56 102 -8 -6 -43 -33 -79 -61 -207 -158
-488 -325 -620 -368 -71 -24 -98 -25 -124 -4 -21 18 -21 18 19 34 166 67 462
223 515 272 8 7 42 33 74 58 64 49 306 282 299 288 -2 3 -21 1 -41 -3 -39 -9
-96 -17 -178 -26 l-51 -6 8 59 c5 32 11 85 14 118 3 33 7 72 9 88 4 34 -4 34
-26 -1z"/>
</g>
</svg>
